<svg width="17" height="15" viewBox="0 0 17 15" fill="none" xmlns="http://www.w3.org/2000/svg">
<path d="M2.46451 4.47634H8.50003" stroke="#A8A8A8" stroke-width="0.9" stroke-linecap="round" stroke-linejoin="round"/>
<path d="M0.452676 0.452661H4.47635" stroke="#A8A8A8" stroke-width="0.9" stroke-linecap="round" stroke-linejoin="round"/>
<path d="M2.46451 0.452661V11.5178C2.46451 11.7846 2.5705 12.0404 2.75914 12.2291C2.94779 12.4177 3.20365 12.5237 3.47043 12.5237H8.50003" stroke="#A8A8A8" stroke-width="0.9" stroke-linecap="round" stroke-linejoin="round"/>
<path d="M15.5415 2.4645H9.50595C8.9504 2.4645 8.50003 2.91486 8.50003 3.47042V5.48226C8.50003 6.03781 8.9504 6.48818 9.50595 6.48818H15.5415C16.097 6.48818 16.5474 6.03781 16.5474 5.48226V3.47042C16.5474 2.91486 16.097 2.4645 15.5415 2.4645Z" stroke="#A8A8A8" stroke-width="0.9" stroke-linecap="round" stroke-linejoin="round"/>
<path d="M15.5415 10.5119H9.50595C8.9504 10.5119 8.50003 10.9622 8.50003 11.5178V13.5296C8.50003 14.0852 8.9504 14.5355 9.50595 14.5355H15.5415C16.097 14.5355 16.5474 14.0852 16.5474 13.5296V11.5178C16.5474 10.9622 16.097 10.5119 15.5415 10.5119Z" stroke="#A8A8A8" stroke-width="0.9" stroke-linecap="round" stroke-linejoin="round"/>
</svg>
