<svg width="80" height="80" viewBox="0 0 80 80" fill="none" xmlns="http://www.w3.org/2000/svg">
<g filter="url(#filter0_d_116_48)">
<circle cx="40" cy="36" r="27" fill="white"/>
<path d="M37.6875 36.8667C38.5469 36.8667 39.25 37.5567 39.25 38.4C39.25 39.2433 38.5469 39.9333 37.6875 39.9333C36.8281 39.9333 36.125 39.2433 36.125 38.4C36.125 37.5567 36.8281 36.8667 37.6875 36.8667ZM37.6875 33.8C35.0938 33.8 33 35.8547 33 38.4C33 40.9453 35.0938 43 37.6875 43C40.2812 43 42.375 40.9453 42.375 38.4C42.375 35.8547 40.2812 33.8 37.6875 33.8ZM50.9688 30.7333L52.6719 27.038L56.4375 25.3667L52.6719 23.6953L50.9688 20L49.2656 23.6953L45.5 25.3667L49.2656 27.038L50.9688 30.7333ZM55.3125 36.4373L54.0938 33.8L52.875 36.4373L50.1875 37.6333L52.875 38.8293L54.0938 41.4667L55.3125 38.8293L58 37.6333L55.3125 36.4373Z" fill="#545454"/>
<path d="M47.9328 38.5C47.9328 38.3125 47.9328 38.1094 47.9169 37.9219L51 35.625L47.0269 28.8594L43.467 30.3281C43.1491 30.125 42.7995 29.9219 42.4499 29.75L41.9731 26H34.0269L33.5501 29.7656C33.2005 29.9375 32.8667 30.1406 32.533 30.3437L28.9731 28.8594L25 35.625L28.0831 37.9219C28.0672 38.1094 28.0672 38.3125 28.0672 38.5C28.0672 38.6875 28.0672 38.8906 28.0831 39.0781L25 41.375L28.9731 48.1406L32.533 46.6719C32.8509 46.875 33.2005 47.0781 33.5501 47.25L34.0269 51H41.9731L42.4499 47.2344C42.7995 47.0625 43.1333 46.875 43.467 46.6562L47.0269 48.125L51 41.3594L47.9169 39.0625C47.9328 38.8906 47.9328 38.6875 47.9328 38.5ZM45.676 44.1875L42.9267 43.0469C42.0367 43.9844 40.8606 44.6719 39.5416 44.9688L39.1601 47.875H36.8399L36.4743 44.9688C35.1553 44.6719 33.9792 43.9844 33.0892 43.0469L30.3399 44.1875L29.1797 42.2031L31.5477 40.4375C31.357 39.8281 31.2616 39.1875 31.2616 38.5156C31.2616 37.8438 31.357 37.2031 31.5477 36.5938L29.1797 34.8281L30.3399 32.8438L33.0892 33.9844C33.9792 33.0469 35.1553 32.3594 36.4743 32.0625L36.8399 29.125H39.176L39.5416 32.0312C40.8606 32.3281 42.0367 33.0156 42.9267 33.9531L45.676 32.8125L46.8362 34.7969L44.4682 36.5625C44.6589 37.1719 44.7543 37.8125 44.7543 38.4844C44.7543 39.1562 44.6589 39.7969 44.4682 40.4062L46.8362 42.1719L45.676 44.1875Z" fill="#545454"/>
</g>
<defs>
<filter id="filter0_d_116_48" x="0" y="0" width="80" height="80" filterUnits="userSpaceOnUse" color-interpolation-filters="sRGB">
<feFlood flood-opacity="0" result="BackgroundImageFix"/>
<feColorMatrix in="SourceAlpha" type="matrix" values="0 0 0 0 0 0 0 0 0 0 0 0 0 0 0 0 0 0 127 0" result="hardAlpha"/>
<feOffset dy="4"/>
<feGaussianBlur stdDeviation="6.5"/>
<feComposite in2="hardAlpha" operator="out"/>
<feColorMatrix type="matrix" values="0 0 0 0 0 0 0 0 0 0 0 0 0 0 0 0 0 0 0.05 0"/>
<feBlend mode="normal" in2="BackgroundImageFix" result="effect1_dropShadow_116_48"/>
<feBlend mode="normal" in="SourceGraphic" in2="effect1_dropShadow_116_48" result="shape"/>
</filter>
</defs>
</svg>
