<svg width="9" height="9" viewBox="0 0 9 9" fill="none" xmlns="http://www.w3.org/2000/svg">
<path d="M4.5 0.5625C6.67441 0.5625 8.4375 2.32559 8.4375 4.5C8.4375 6.67441 6.67441 8.4375 4.5 8.4375C2.32559 8.4375 0.5625 6.67441 0.5625 4.5C0.5625 2.32559 2.32559 0.5625 4.5 0.5625ZM4.5 7.76953C6.30527 7.76953 7.76953 6.30527 7.76953 4.5C7.76953 2.69473 6.30527 1.23047 4.5 1.23047C2.69473 1.23047 1.23047 2.69473 1.23047 4.5C1.23047 6.30527 2.69473 7.76953 4.5 7.76953Z" fill="black"/>
<path d="M4.5 1.23047C6.30527 1.23047 7.76953 2.69473 7.76953 4.5C7.76953 6.30527 6.30527 7.76953 4.5 7.76953C2.69473 7.76953 1.23047 6.30527 1.23047 4.5C1.23047 2.69473 2.69473 1.23047 4.5 1.23047ZM4.21875 6.39844C4.21875 6.43711 4.25039 6.46875 4.28906 6.46875H4.71094C4.74961 6.46875 4.78125 6.43711 4.78125 6.39844V4.00781C4.78125 3.96914 4.74961 3.9375 4.71094 3.9375H4.28906C4.25039 3.9375 4.21875 3.96914 4.21875 4.00781V6.39844ZM4.5 3.375C4.6104 3.37275 4.71551 3.32731 4.79279 3.24844C4.87007 3.16957 4.91335 3.06355 4.91335 2.95312C4.91335 2.8427 4.87007 2.73668 4.79279 2.65781C4.71551 2.57894 4.6104 2.5335 4.5 2.53125C4.3896 2.5335 4.28449 2.57894 4.20721 2.65781C4.12993 2.73668 4.08665 2.8427 4.08665 2.95312C4.08665 3.06355 4.12993 3.16957 4.20721 3.24844C4.28449 3.32731 4.3896 3.37275 4.5 3.375Z" fill="black" fill-opacity="0.15"/>
<path d="M4.92188 2.95312C4.92187 3.06501 4.87743 3.17232 4.79831 3.25144C4.71919 3.33055 4.61189 3.375 4.5 3.375C4.38811 3.375 4.28081 3.33055 4.20169 3.25144C4.12257 3.17232 4.07812 3.06501 4.07812 2.95312C4.07812 2.84124 4.12257 2.73393 4.20169 2.65481C4.28081 2.5757 4.38811 2.53125 4.5 2.53125C4.61189 2.53125 4.71919 2.5757 4.79831 2.65481C4.87743 2.73393 4.92187 2.84124 4.92188 2.95312ZM4.28906 3.9375H4.71094C4.74961 3.9375 4.78125 3.96914 4.78125 4.00781V6.39844C4.78125 6.43711 4.74961 6.46875 4.71094 6.46875H4.28906C4.25039 6.46875 4.21875 6.43711 4.21875 6.39844V4.00781C4.21875 3.96914 4.25039 3.9375 4.28906 3.9375Z" fill="black"/>
</svg>
