<svg width="19" height="33" viewBox="0 0 19 33" fill="none" xmlns="http://www.w3.org/2000/svg">
<path d="M18.3477 0.645825C18.1423 0.441108 17.8983 0.278687 17.6297 0.167865C17.3611 0.0570441 17.0731 0 16.7822 0C16.4914 0 16.2034 0.0570441 15.9348 0.167865C15.6662 0.278687 15.4222 0.441108 15.2168 0.645825L0.517301 15.2599C0.353319 15.4226 0.223222 15.6159 0.134456 15.8286C0.0456908 16.0414 0 16.2694 0 16.4998C0 16.7301 0.0456908 16.9582 0.134456 17.1709C0.223222 17.3836 0.353319 17.5769 0.517301 17.7396L15.2168 32.3537C16.0835 33.2154 17.4809 33.2154 18.3477 32.3537C19.2145 31.492 19.2145 30.1027 18.3477 29.241L5.54095 16.491L18.3654 3.74099C19.2145 2.89686 19.2145 1.48996 18.3477 0.645825Z" fill="white"/>
</svg>
