<svg width="66" height="65" viewBox="0 0 66 65" fill="none" xmlns="http://www.w3.org/2000/svg">
<path d="M0 32.5C0 17.1793 0 9.51902 4.76187 4.75951C9.52375 0 17.1879 0 32.5161 0C47.8444 0 55.5084 0 60.2704 4.75951C65.0323 9.51902 65.0323 17.1793 65.0323 32.5C65.0323 47.8207 65.0323 55.4809 60.2704 60.2405C55.5084 65 47.8444 65 32.5161 65C17.1879 65 9.52375 65 4.76187 60.2405C0 55.4809 0 47.8207 0 32.5Z" fill="white" fill-opacity="0.81"/>
<path d="M39.0193 42.25C39.9173 42.25 40.6616 42.9847 40.4832 43.8643C40.168 45.4178 39.4022 46.8577 38.2641 47.9952C36.7398 49.5189 34.6721 50.375 32.5161 50.375C30.3601 50.375 28.2926 49.5189 26.7681 47.9952C25.63 46.8577 24.8642 45.4178 24.5492 43.8643C24.3706 42.9847 25.1149 42.25 26.0129 42.25H39.0193Z" fill="#B068B7" fill-opacity="0.82"/>
<path d="M42.4373 28.8868C41.5699 29.119 41.0388 30.0259 41.4785 30.8084C41.9414 31.6319 42.5816 32.3507 43.3606 32.9085C44.5835 33.7844 46.0724 34.2095 47.5739 34.111C49.0751 34.0127 50.4959 33.3972 51.594 32.3692C52.6922 31.3412 53.3996 29.9644 53.596 28.4734C53.7924 26.9825 53.4656 25.4696 52.6711 24.1925C51.8766 22.9156 50.6635 21.9534 49.2388 21.47C47.8141 20.9865 46.2659 21.0119 44.8578 21.5416C43.961 21.879 43.1565 22.4076 42.4961 23.0833C41.8687 23.7253 42.1469 24.7388 42.9245 25.1875L43.7493 25.6635C45.0036 26.3874 44.7563 28.2657 43.3572 28.6405L42.4373 28.8868Z" fill="#B068B7" fill-opacity="0.82"/>
<path d="M22.5951 28.8868C23.4625 29.119 23.9936 30.0259 23.5539 30.8084C23.091 31.6319 22.4508 32.3507 21.672 32.9085C20.4491 33.7844 18.96 34.2095 17.4587 34.111C15.9573 34.0127 14.5365 33.3972 13.4384 32.3692C12.3403 31.3412 11.6328 29.9644 11.4364 28.4734C11.24 26.9825 11.5669 25.4696 12.3614 24.1925C13.1559 22.9156 14.3689 21.9534 15.7936 21.47C17.2183 20.9865 18.7667 21.0119 20.1748 21.5416C21.0714 21.879 21.876 22.4076 22.5364 23.0833C23.1638 23.7253 22.8855 24.7388 22.1079 25.1875L21.2831 25.6635C20.0288 26.3874 20.2762 28.2657 21.6752 28.6405L22.5951 28.8868Z" fill="#B068B7" fill-opacity="0.82"/>
</svg>
